# xmcd CD Database Entry
#
# Track frame offsets:
# 150
# 11701
# 25619
# 26071
# 42099
# 55928
# 73596
# 89267
#
# Disc length: 1314 seconds
#
# Revision: 1
# Processed by: cddbd v1.4PL0 Copyright (c) Steve Scherf et al.
# Submitted via: tcd 2.0b
#
DISCID=5d052008
DTITLE=Okänd - Okänd
DYEAR=1900
DGENRE=
TTITLE0=Spår 1
TTITLE1=Spår 2
TTITLE2=Spår 3
TTITLE3=Spår 4
TTITLE4=Spår 5
TTITLE5=Spår 6
TTITLE6=Spår 7
TTITLE7=Spår 8
EXTD=
EXTT0=
EXTT1=
EXTT2=
EXTT3=
EXTT4=
EXTT5=
EXTT6=
EXTT7=
PLAYORDER=
